<?xml version="1.0" standalone="no"?>
<!DOCTYPE svg PUBLIC "-//W3C//DTD SVG 20010904//EN"
 "http://www.w3.org/TR/2001/REC-SVG-20010904/DTD/svg10.dtd">
<svg version="1.0" xmlns="http://www.w3.org/2000/svg"
 width="612.000000pt" height="531.000000pt" viewBox="0 0 612.000000 531.000000"
 preserveAspectRatio="xMidYMid meet">

<g transform="translate(0.000000,531.000000) scale(0.100000,-0.100000)"
fill="#000000" stroke="none">
<path d="M3700 4858 c-66 -25 -145 -101 -180 -173 -21 -42 -25 -65 -25 -145 0
-84 3 -102 28 -152 16 -32 49 -76 76 -100 l49 -44 -24 -44 c-66 -125 -100
-310 -92 -497 5 -111 18 -170 63 -284 5 -13 -9 -24 -59 -47 -78 -36 -131 -75
-248 -183 l-88 -80 -62 51 c-73 60 -235 142 -328 166 -36 9 -110 20 -165 23
l-99 6 -33 170 c-17 94 -32 177 -32 186 -1 13 28 22 142 44 158 31 188 46 172
90 -6 16 -167 149 -435 361 -234 185 -508 403 -610 484 -223 176 -233 183
-259 175 -12 -4 -163 -251 -431 -708 -227 -386 -415 -705 -417 -710 -8 -13 8
-47 26 -57 13 -6 63 -1 167 19 82 16 149 28 150 27 1 0 42 -216 92 -479 l91
-479 -33 -32 c-67 -62 -69 -40 65 -730 66 -342 147 -760 180 -931 33 -170 64
-320 69 -332 l10 -23 1530 0 1530 0 10 23 c5 12 73 351 150 752 78 402 150
763 162 802 l21 73 40 -36 c92 -83 196 -95 312 -36 179 91 201 250 75 548
-111 263 -248 493 -324 545 l-34 23 68 73 c112 117 188 297 220 518 11 71 7
215 -6 249 -3 7 18 22 50 35 108 44 182 136 206 254 31 151 -54 314 -198 380
-37 17 -66 22 -137 22 -78 0 -97 -4 -146 -28 -31 -15 -75 -47 -98 -72 l-41
-44 -82 44 c-138 72 -210 90 -373 90 -77 0 -160 -4 -185 -8 l-45 -9 -28 60
c-34 75 -107 143 -183 171 -74 28 -180 27 -254 -1z m201 -90 c22 -6 57 -27 79
-46 38 -32 80 -97 80 -122 0 -6 -20 -19 -45 -30 -69 -30 -162 -96 -241 -172
l-70 -68 -36 38 c-56 58 -72 98 -72 172 1 163 150 275 305 228z m-2208 -167
c89 -71 221 -175 293 -232 481 -380 634 -503 631 -506 -2 -2 -246 -50 -543
-107 -296 -58 -703 -137 -903 -176 -200 -38 -365 -69 -367 -68 -4 5 711 1217
719 1218 4 0 81 -58 170 -129z m3502 -52 c56 -14 131 -79 156 -134 22 -48 25
-142 5 -189 -21 -50 -76 -107 -126 -129 -24 -11 -46 -15 -47 -10 -2 5 -21 44
-43 87 -43 84 -105 169 -169 230 l-40 39 20 25 c39 50 115 89 177 91 13 1 43
-4 67 -10z m-678 -15 c157 -32 280 -101 394 -222 207 -218 258 -465 162 -777
-70 -224 -196 -357 -393 -411 -96 -27 -320 -24 -458 5 -206 43 -373 125 -457
224 -59 68 -104 172 -122 278 -29 171 6 397 82 534 156 278 487 432 792 369z
m-2108 -1013 c18 -95 31 -174 29 -175 -2 -1 -41 -12 -86 -24 -347 -91 -621
-409 -660 -767 l-7 -60 -207 -3 c-131 -1 -208 1 -208 7 0 6 -40 222 -90 482
-50 259 -90 472 -90 474 0 4 -51 -6 655 130 330 63 605 117 610 119 6 2 13 1
16 -3 3 -3 20 -84 38 -180z m1320 -277 l58 -57 -92 -91 c-98 -96 -165 -191
-220 -308 -34 -75 -35 -75 -55 -13 -15 47 -60 132 -107 198 -18 26 -33 51 -33
55 0 11 115 121 185 177 65 52 147 95 183 95 14 0 45 -21 81 -56z m-901 -37
c138 -47 201 -86 307 -192 140 -140 209 -278 240 -482 l7 -43 -796 0 -796 0 0
23 c0 37 28 156 50 216 86 230 300 429 530 490 111 29 115 30 241 26 102 -3
130 -7 217 -38z m1197 -131 c137 -48 305 -76 466 -76 l128 0 32 -46 c70 -103
131 -273 145 -408 l6 -61 -653 3 c-359 1 -655 5 -657 7 -9 8 30 141 62 216 63
144 164 279 280 371 56 45 47 45 191 -6z m867 -52 c54 -35 130 -148 213 -319
194 -396 208 -532 66 -604 -100 -51 -176 -26 -250 84 -27 40 -27 40 -17 139
11 115 -2 265 -34 392 -21 80 -98 254 -127 287 -19 20 -19 20 27 40 42 19 72
14 122 -19z m-108 -666 c8 -13 -20 -175 -118 -680 -71 -365 -150 -772 -175
-905 l-46 -243 -1455 3 -1454 2 -148 760 c-211 1091 -204 1051 -189 1069 12
15 186 16 1794 14 1664 -3 1781 -4 1791 -20z"/>
<path d="M3995 3875 c-56 -55 -16 -145 64 -145 49 0 81 35 81 87 0 74 -92 112
-145 58z"/>
<path d="M4625 3765 c-54 -53 -16 -145 60 -145 76 0 116 97 62 148 -33 31 -90
30 -122 -3z"/>
<path d="M4257 3565 c-33 -33 -9 -103 43 -125 75 -31 157 63 100 115 -29 26
-121 33 -143 10z"/>
<path d="M2520 2021 c-72 -22 -129 -73 -157 -140 -19 -46 -18 -128 2 -179 22
-55 93 -117 150 -131 63 -16 904 -15 957 1 55 16 123 79 143 133 27 68 17 163
-21 217 -34 49 -81 83 -133 98 -42 12 -903 12 -941 1z m966 -134 c43 -40 55
-96 30 -149 -33 -69 -22 -68 -526 -68 -504 0 -493 -1 -526 68 -25 53 -13 109
30 149 l36 33 460 0 460 0 36 -33z"/>
</g>
</svg>
