<?xml version="1.0" standalone="no"?>
<!DOCTYPE svg PUBLIC "-//W3C//DTD SVG 20010904//EN"
 "http://www.w3.org/TR/2001/REC-SVG-20010904/DTD/svg10.dtd">
<svg version="1.0" xmlns="http://www.w3.org/2000/svg"
 width="512.000000pt" height="512.000000pt" viewBox="0 0 512.000000 512.000000"
 preserveAspectRatio="xMidYMid meet">

<g transform="translate(0.000000,512.000000) scale(0.100000,-0.100000)"
fill="#000000" stroke="none">
<path d="M1787 4509 c-100 -24 -197 -104 -240 -197 -21 -44 -22 -65 -25 -314
l-3 -267 -627 -3 -627 -3 -60 -28 c-98 -46 -159 -116 -189 -217 -13 -43 -16
-107 -16 -327 0 -251 2 -277 19 -312 24 -46 58 -70 114 -79 l42 -8 5 -954 5
-955 25 -49 c30 -58 98 -129 149 -155 20 -10 60 -24 89 -30 75 -16 4149 -16
4224 0 29 6 69 20 89 30 51 26 119 97 149 155 l25 49 5 955 5 954 42 8 c56 9
90 33 114 79 17 35 19 61 19 312 0 220 -3 284 -16 327 -30 101 -91 171 -189
217 l-60 28 -627 3 -627 3 -3 267 c-3 250 -4 270 -25 314 -32 71 -103 141
-176 174 l-62 29 -755 2 c-419 1 -772 -3 -793 -8z m1525 -149 c50 -14 97 -55
119 -105 16 -35 19 -69 19 -282 l0 -243 -55 0 -55 0 0 238 c-1 248 -2 256 -47
280 -31 17 -1435 17 -1466 0 -45 -24 -46 -32 -47 -280 l0 -238 -55 0 -55 0 0
243 c0 264 6 293 63 345 55 51 50 51 822 52 466 0 733 -4 757 -10z m-122 -440
l0 -190 -630 0 -630 0 0 190 0 190 630 0 630 0 0 -190z m1642 -350 c50 -14 97
-55 119 -105 16 -35 19 -69 19 -297 l0 -258 -394 0 -394 0 -4 104 c-3 99 -4
106 -34 143 -59 73 -76 78 -289 81 -201 4 -245 -2 -297 -41 -49 -36 -68 -91
-68 -195 l0 -92 -930 0 -930 0 0 92 c0 104 -19 159 -68 195 -52 39 -96 45
-297 41 -213 -3 -230 -8 -289 -81 -30 -37 -31 -44 -34 -143 l-4 -104 -394 0
-394 0 0 258 c0 281 5 307 63 360 58 54 -71 51 2342 52 1511 0 2252 -3 2277
-10z m-3364 -492 c17 -17 17 -629 0 -646 -17 -17 -349 -17 -366 0 -17 17 -17
629 0 646 17 17 349 17 366 0z m2550 0 c17 -17 17 -629 0 -646 -17 -17 -349
-17 -366 0 -17 17 -17 629 0 646 17 17 349 17 366 0z m-3076 -502 l3 -184 31
-39 c61 -75 73 -78 309 -78 l210 0 47 27 c77 46 88 80 88 286 l0 172 930 0
930 0 0 -172 c0 -206 11 -240 88 -286 l47 -27 210 0 c236 0 248 3 309 78 l31
39 3 184 4 184 304 0 304 0 -2 -943 -3 -943 -25 -37 c-15 -22 -46 -48 -74 -62
l-50 -25 -2076 0 -2076 0 -50 25 c-28 14 -59 40 -74 62 l-25 37 -3 943 -2 943
304 0 304 0 4 -184z"/>
</g>
</svg>
